<svg xmlns="http://www.w3.org/2000/svg" xmlns:xlink="http://www.w3.org/1999/xlink" width="216" zoomAndPan="magnify" viewBox="0 0 162 161.999997" height="216" preserveAspectRatio="xMidYMid meet" version="1.0"><defs><clipPath id="a3b0d8a1a5"><path d="M 26.640625 46 L 141.367188 46 L 141.367188 140.632812 L 26.640625 140.632812 Z M 26.640625 46 " clip-rule="nonzero"/></clipPath><clipPath id="57c5ee86ab"><path d="M 73 28.25 L 95 28.25 L 95 53 L 73 53 Z M 73 28.25 " clip-rule="nonzero"/></clipPath><clipPath id="43262c56ce"><path d="M 44.621094 31.722656 L 62.585938 31.722656 L 62.585938 41.667969 L 44.621094 41.667969 Z M 44.621094 31.722656 " clip-rule="nonzero"/></clipPath><clipPath id="7438679754"><path d="M 20.460938 31 L 46 31 L 46 43.984375 L 20.460938 43.984375 Z M 20.460938 31 " clip-rule="nonzero"/></clipPath><clipPath id="12bf309041"><path d="M 56 20.570312 L 61 20.570312 L 61 25 L 56 25 Z M 56 20.570312 " clip-rule="nonzero"/></clipPath></defs><g clip-path="url(#a3b0d8a1a5)"><path fill="#FF4A17" d="M 112.097656 46.8125 C 111.566406 46.75 111 46.875 110.558594 47.21875 C 110.152344 47.59375 109.867188 48.09375 109.867188 48.65625 L 109.898438 74.847656 C 108.988281 75.003906 108.015625 75.097656 107.070312 75.253906 L 107.070312 63.625 C 107.324219 60.84375 106.472656 58.125 104.746094 55.96875 C 102.734375 53.46875 99.6875 52.03125 96.480469 52.15625 L 92.050781 52.15625 C 91.546875 52.15625 91.109375 52.3125 90.761719 52.65625 L 84.320312 58.65625 L 78.128906 52.6875 C 77.785156 52.34375 77.3125 52.15625 76.808594 52.15625 L 72.097656 52.15625 C 66.21875 52.15625 61.410156 56.875 61.410156 62.6875 C 61.410156 63.03125 61.441406 63.3125 61.441406 63.65625 L 61.441406 75.285156 C 60.28125 75.097656 58.929688 74.941406 57.671875 74.722656 L 57.703125 48.78125 C 57.703125 48.21875 57.484375 47.6875 57.011719 47.34375 C 56.601562 46.96875 56.039062 46.8125 55.472656 46.90625 C 37.433594 50.03125 27.097656 55.875 27.066406 62.40625 L 26.6875 103.285156 C 26.6875 113.226562 48.308594 119.289062 71.9375 120.851562 L 72.316406 133.445312 C 72.441406 136.226562 74.167969 138.695312 76.808594 139.664062 C 79.449219 140.632812 82.402344 139.976562 84.320312 137.945312 C 85.640625 139.320312 87.460938 140.132812 89.378906 140.132812 C 93.117188 140.132812 96.199219 137.195312 96.324219 133.507812 L 96.699219 120.882812 C 104.871094 120.320312 112.539062 119.226562 119.136719 117.695312 C 119.453125 117.695312 119.703125 117.632812 119.953125 117.507812 C 121.148438 117.195312 122.34375 116.914062 123.507812 116.570312 C 134.882812 113.226562 140.914062 108.691406 140.914062 103.441406 L 141.261719 63.1875 L 141.230469 63.1875 C 141.230469 62.96875 141.261719 62.8125 141.261719 62.625 C 141.324219 52.78125 120.898438 48.3125 112.097656 46.8125 Z M 137.550781 62.5625 C 137.550781 65.78125 131.863281 69.472656 122.71875 72.097656 C 119.921875 72.878906 116.90625 73.597656 113.703125 74.191406 L 113.671875 50.875 C 130.167969 53.96875 137.550781 58.875 137.550781 62.5625 Z M 65.277344 63.375 C 65.246094 63.15625 65.246094 62.9375 65.246094 62.6875 C 65.246094 60.875 65.96875 59.125 67.289062 57.84375 C 68.578125 56.5625 70.335938 55.84375 72.160156 55.84375 L 76.117188 55.84375 L 83.0625 62.53125 L 83.09375 62.53125 C 83.125 62.5625 83.125 62.5625 83.15625 62.59375 C 83.1875 62.59375 83.1875 62.625 83.21875 62.625 C 83.25 62.65625 83.28125 62.65625 83.28125 62.6875 C 83.3125 62.6875 83.3125 62.71875 83.34375 62.71875 C 83.378906 62.71875 83.410156 62.75 83.410156 62.75 C 83.441406 62.75 83.441406 62.78125 83.472656 62.78125 C 83.503906 62.78125 83.535156 62.8125 83.535156 62.8125 C 83.566406 62.8125 83.566406 62.84375 83.597656 62.84375 C 83.628906 62.84375 83.660156 62.875 83.660156 62.875 C 83.691406 62.875 83.691406 62.875 83.722656 62.90625 C 83.753906 62.90625 83.785156 62.90625 83.785156 62.9375 C 83.785156 62.96875 83.816406 62.9375 83.847656 62.9375 C 83.878906 62.9375 83.910156 62.9375 83.972656 62.9375 C 84.003906 62.9375 84.003906 62.9375 84.035156 62.9375 C 84.070312 62.9375 84.101562 62.9375 84.164062 62.9375 C 84.226562 62.9375 84.195312 62.9375 84.226562 62.9375 C 84.257812 62.9375 84.289062 62.9375 84.351562 62.9375 C 84.382812 62.9375 84.382812 62.9375 84.414062 62.9375 C 84.445312 62.9375 84.476562 62.9375 84.539062 62.9375 C 84.601562 62.9375 84.570312 62.9375 84.601562 62.9375 C 84.632812 62.9375 84.664062 62.9375 84.726562 62.90625 C 84.757812 62.90625 84.757812 62.90625 84.792969 62.875 C 84.824219 62.875 84.855469 62.84375 84.855469 62.84375 C 84.886719 62.84375 84.886719 62.8125 84.917969 62.8125 C 84.949219 62.8125 84.980469 62.78125 84.980469 62.78125 C 85.011719 62.78125 85.011719 62.75 85.042969 62.75 C 85.074219 62.75 85.074219 62.71875 85.105469 62.71875 C 85.136719 62.71875 85.136719 62.6875 85.167969 62.6875 C 85.199219 62.6875 85.199219 62.65625 85.230469 62.625 C 85.261719 62.59375 85.261719 62.59375 85.292969 62.5625 L 85.324219 62.5625 L 92.523438 55.84375 L 96.449219 55.84375 C 98.523438 55.78125 100.535156 56.65625 101.761719 58.3125 C 102.921875 59.6875 103.457031 61.53125 103.269531 63.34375 C 103.269531 63.40625 103.269531 63.46875 103.269531 63.53125 L 103.269531 75.691406 C 101.382812 75.878906 99.496094 76.066406 97.613281 76.191406 L 97.613281 72.066406 C 97.613281 71.003906 96.796875 70.191406 95.726562 70.191406 C 94.660156 70.191406 93.839844 71.003906 93.839844 72.066406 L 93.839844 76.441406 C 90.792969 76.597656 87.429688 76.691406 84.070312 76.691406 C 80.832031 76.691406 77.59375 76.628906 74.515625 76.441406 L 74.515625 72.066406 C 74.515625 71.003906 73.699219 70.191406 72.628906 70.191406 C 71.5625 70.191406 70.746094 71.003906 70.746094 72.066406 L 70.746094 76.222656 C 68.859375 76.066406 66.972656 75.910156 65.089844 75.722656 L 65.089844 63.53125 C 65.277344 63.5 65.277344 63.4375 65.277344 63.375 Z M 53.996094 51.0625 L 53.964844 74.097656 C 51.011719 73.535156 48.277344 72.847656 45.699219 72.097656 C 36.585938 69.441406 30.867188 65.78125 30.867188 62.5625 C 30.898438 58.96875 38.0625 54.125 53.996094 51.0625 Z M 84.035156 117.539062 C 80.863281 117.539062 77.753906 117.476562 74.671875 117.320312 L 81.964844 110.441406 L 94.15625 98.972656 L 114.738281 114.789062 C 105.8125 116.570312 95.191406 117.539062 84.035156 117.539062 Z M 69.613281 116.976562 C 61.726562 116.351562 54.402344 115.226562 48.183594 113.632812 L 63.453125 99.191406 L 77.785156 109.253906 Z M 79.292969 136.382812 C 77.59375 136.382812 76.210938 135.039062 76.117188 133.351562 L 75.742188 121.101562 C 77.972656 121.226562 80.296875 121.257812 82.402344 121.289062 L 82.402344 133.257812 C 82.402344 134.070312 82.058594 134.914062 81.492188 135.476562 C 80.925781 136.070312 80.109375 136.382812 79.292969 136.382812 Z M 92.554688 133.382812 C 92.488281 135.101562 91.042969 136.445312 89.316406 136.414062 C 87.589844 136.382812 86.171875 134.976562 86.171875 133.257812 L 86.171875 121.289062 C 88.5 121.257812 90.699219 121.226562 92.898438 121.101562 Z M 122.46875 112.882812 C 121.527344 113.132812 120.550781 113.414062 119.515625 113.664062 L 95.191406 94.972656 C 94.46875 94.410156 93.433594 94.441406 92.742188 95.097656 L 80.515625 106.597656 L 64.332031 95.222656 C 63.609375 94.691406 62.605469 94.785156 61.945312 95.410156 L 43.972656 112.445312 C 35.675781 109.816406 30.585938 106.410156 30.585938 103.378906 L 30.898438 69.253906 C 36.742188 74.160156 48.875 77.503906 62.792969 79.191406 C 63.109375 79.316406 63.390625 79.347656 63.707031 79.316406 C 66.503906 79.660156 69.332031 79.878906 72.222656 80.066406 C 72.535156 80.128906 72.820312 80.191406 73.101562 80.097656 C 76.808594 80.316406 80.582031 80.441406 84.257812 80.441406 C 88.027344 80.441406 91.832031 80.316406 95.601562 80.097656 C 95.726562 80.128906 95.851562 80.128906 95.976562 80.128906 C 96.199219 80.128906 96.386719 80.097656 96.574219 80.003906 C 99.464844 79.816406 102.355469 79.566406 105.183594 79.222656 C 105.21875 79.222656 105.25 79.222656 105.3125 79.222656 C 105.5 79.222656 105.6875 79.191406 105.875 79.160156 C 119.640625 77.472656 131.675781 74.160156 137.550781 69.347656 L 137.238281 103.347656 C 137.207031 106.597656 131.550781 110.253906 122.46875 112.882812 Z M 122.46875 112.882812 " fill-opacity="1" fill-rule="nonzero"/></g><g clip-path="url(#57c5ee86ab)"><path fill="#FF4A17" d="M 84.070312 52.1875 C 89.757812 52.1875 94.40625 47.625 94.40625 41.90625 L 94.40625 38.53125 C 94.40625 32.84375 89.757812 28.25 84.070312 28.25 C 78.347656 28.25 73.730469 32.875 73.730469 38.53125 L 73.730469 41.90625 C 73.761719 47.5625 78.378906 52.125 84.070312 52.1875 Z M 77.46875 38.53125 C 77.46875 34.9375 80.421875 32 84.035156 32 L 84.070312 32 C 87.683594 32 90.636719 34.9375 90.667969 38.53125 L 90.667969 41.90625 C 90.667969 45.5 87.714844 48.46875 84.070312 48.46875 C 80.453125 48.46875 77.46875 45.53125 77.46875 41.90625 Z M 77.46875 38.53125 " fill-opacity="1" fill-rule="nonzero"/></g><path fill="#FF4A17" d="M 78.726562 83.316406 C 74.734375 83.316406 71.4375 86.535156 71.4375 90.566406 C 71.4375 94.535156 74.671875 97.816406 78.726562 97.816406 C 82.71875 97.816406 86.015625 94.597656 86.015625 90.566406 C 85.953125 86.566406 82.71875 83.316406 78.726562 83.316406 Z M 78.726562 94.035156 C 76.808594 94.035156 75.207031 92.472656 75.207031 90.535156 C 75.207031 88.628906 76.777344 87.035156 78.726562 87.035156 C 80.675781 87.035156 82.246094 88.597656 82.246094 90.535156 C 82.183594 92.441406 80.644531 94.035156 78.726562 94.035156 Z M 78.726562 94.035156 " fill-opacity="1" fill-rule="nonzero"/><path fill="#FF4A17" d="M 36.019531 31.664062 C 36.019531 32.777344 35.585938 33.753906 34.726562 34.566406 C 33.871094 35.375 32.84375 35.785156 31.671875 35.785156 C 30.511719 35.785156 29.492188 35.492188 28.636719 34.914062 C 28.03125 34.507812 27.570312 33.929688 27.253906 33.195312 C 27.136719 32.929688 27.039062 32.640625 26.964844 32.332031 C 26.949219 32.269531 26.933594 32.207031 26.921875 32.140625 L 26.90625 32.078125 C 26.871094 31.914062 27 31.757812 27.167969 31.757812 L 29.085938 31.757812 C 29.226562 31.757812 29.351562 31.847656 29.390625 31.980469 C 29.441406 32.132812 29.492188 32.269531 29.554688 32.402344 C 29.945312 33.25 30.609375 33.667969 31.5625 33.667969 C 32.121094 33.667969 32.597656 33.480469 33.015625 33.101562 C 33.425781 32.726562 33.625 32.304688 33.625 31.816406 C 33.625 31.714844 33.617188 31.617188 33.601562 31.523438 C 33.574219 31.308594 33.511719 31.105469 33.414062 30.90625 C 33.320312 30.71875 33.199219 30.535156 33.046875 30.359375 C 32.675781 29.929688 32.03125 29.703125 31.136719 29.683594 L 31.085938 29.683594 C 30.941406 29.679688 30.824219 29.5625 30.824219 29.417969 L 30.824219 27.796875 C 30.824219 27.652344 30.941406 27.53125 31.089844 27.53125 L 31.140625 27.527344 C 31.820312 27.515625 32.355469 27.355469 32.730469 27.050781 C 33.089844 26.753906 33.261719 26.386719 33.261719 25.921875 C 33.261719 25.4375 33.09375 25.035156 32.75 24.695312 C 32.40625 24.355469 32 24.191406 31.503906 24.191406 C 31.039062 24.191406 30.667969 24.304688 30.40625 24.523438 C 30.125 24.753906 29.894531 25.140625 29.710938 25.671875 L 29.699219 25.707031 C 29.664062 25.816406 29.5625 25.886719 29.445312 25.886719 L 27.535156 25.886719 C 27.375 25.886719 27.25 25.75 27.269531 25.59375 L 27.277344 25.535156 C 27.402344 24.417969 27.859375 23.550781 28.632812 22.957031 C 29.390625 22.371094 30.320312 22.074219 31.386719 22.074219 C 32.613281 22.074219 33.644531 22.429688 34.457031 23.125 C 35.28125 23.832031 35.699219 24.734375 35.699219 25.800781 C 35.699219 26.84375 35.277344 27.703125 34.441406 28.363281 C 34.304688 28.472656 34.308594 28.679688 34.449219 28.785156 C 35.171875 29.304688 35.648438 29.925781 35.871094 30.648438 C 35.925781 30.828125 35.96875 31.011719 35.992188 31.207031 C 36.011719 31.355469 36.019531 31.507812 36.019531 31.664062 " fill-opacity="1" fill-rule="nonzero"/><path fill="#FF4A17" d="M 43.34375 32.710938 C 42.871094 33.179688 42.308594 33.40625 41.628906 33.40625 C 40.9375 33.40625 40.367188 33.179688 39.890625 32.714844 C 39.414062 32.246094 39.179688 31.691406 39.179688 31.015625 C 39.179688 31 39.179688 30.980469 39.179688 30.964844 C 39.183594 30.785156 39.207031 30.613281 39.246094 30.449219 C 39.351562 30.035156 39.570312 29.660156 39.917969 29.316406 C 40.410156 28.824219 40.972656 28.585938 41.628906 28.585938 C 42.289062 28.585938 42.84375 28.820312 43.328125 29.304688 C 43.667969 29.644531 43.882812 30.019531 43.984375 30.4375 C 44.023438 30.601562 44.042969 30.769531 44.050781 30.945312 C 44.050781 30.96875 44.050781 30.992188 44.050781 31.015625 C 44.050781 31.6875 43.820312 32.238281 43.34375 32.710938 Z M 46.445312 30.554688 C 46.347656 29.566406 45.878906 28.675781 45.046875 27.902344 C 44.113281 27.035156 43.011719 26.59375 41.773438 26.59375 L 41.753906 26.59375 L 41.574219 26.605469 L 43.925781 23.203125 C 44.027344 23.058594 43.992188 22.863281 43.84375 22.761719 L 42.554688 21.878906 C 42.40625 21.78125 42.207031 21.816406 42.109375 21.960938 L 37.667969 28.292969 C 37.175781 28.996094 36.882812 29.761719 36.800781 30.578125 C 36.78125 30.742188 36.773438 30.90625 36.773438 31.074219 C 36.773438 31.089844 36.773438 31.109375 36.773438 31.128906 C 36.789062 32.410156 37.269531 33.519531 38.207031 34.425781 C 39.15625 35.347656 40.3125 35.8125 41.648438 35.8125 C 42.988281 35.8125 44.136719 35.335938 45.070312 34.398438 C 45.964844 33.492188 46.433594 32.378906 46.464844 31.09375 C 46.464844 31.046875 46.464844 31.003906 46.464844 30.957031 C 46.464844 30.824219 46.460938 30.6875 46.445312 30.554688 " fill-opacity="1" fill-rule="nonzero"/><path fill="#FF4A17" d="M 53.898438 31.558594 C 53.804688 31.796875 53.695312 32.019531 53.570312 32.226562 C 53.566406 32.234375 53.5625 32.242188 53.554688 32.25 C 53.082031 33.027344 52.496094 33.40625 51.773438 33.40625 C 51.007812 33.40625 50.394531 33.027344 49.902344 32.25 C 49.746094 32.003906 49.613281 31.734375 49.503906 31.4375 C 49.429688 31.238281 49.367188 31.03125 49.316406 30.8125 C 49.1875 30.261719 49.121094 29.644531 49.121094 28.964844 C 49.121094 27.582031 49.378906 26.464844 49.894531 25.636719 C 50.378906 24.847656 50.984375 24.460938 51.734375 24.460938 C 52.460938 24.460938 53.054688 24.851562 53.550781 25.648438 C 54.066406 26.488281 54.332031 27.582031 54.332031 28.90625 C 54.332031 29.9375 54.1875 30.828125 53.898438 31.558594 Z M 55.40625 24.027344 C 54.492188 22.730469 53.285156 22.074219 51.8125 22.074219 L 51.714844 22.074219 C 50.34375 22.074219 49.152344 22.703125 48.179688 23.945312 C 47.226562 25.164062 46.742188 26.871094 46.742188 29.019531 C 46.742188 29.566406 46.78125 30.089844 46.855469 30.585938 C 46.882812 30.769531 46.914062 30.953125 46.953125 31.132812 C 47.175781 32.167969 47.570312 33.082031 48.132812 33.855469 C 49.082031 35.15625 50.292969 35.8125 51.734375 35.8125 C 53.121094 35.8125 54.320312 35.171875 55.300781 33.90625 C 55.519531 33.625 55.714844 33.320312 55.882812 32.992188 C 56.011719 32.742188 56.128906 32.480469 56.230469 32.203125 C 56.574219 31.257812 56.746094 30.160156 56.746094 28.925781 C 56.746094 26.933594 56.296875 25.285156 55.40625 24.027344 " fill-opacity="1" fill-rule="nonzero"/><g clip-path="url(#43262c56ce)"><path fill="#FF4A17" d="M 62.585938 34.875 C 62.589844 35.191406 62.523438 35.503906 62.410156 35.785156 C 62.296875 36.0625 62.140625 36.3125 61.96875 36.527344 C 61.796875 36.746094 61.609375 36.9375 61.414062 37.113281 C 61.222656 37.289062 61.019531 37.445312 60.8125 37.589844 C 59.984375 38.171875 59.105469 38.589844 58.214844 38.957031 C 57.328125 39.324219 56.421875 39.625 55.511719 39.890625 C 54.597656 40.15625 53.679688 40.386719 52.753906 40.585938 C 49.921875 41.195312 47.507812 41.539062 44.625 41.667969 L 47.070312 40.320312 L 44.875 39.269531 C 45.734375 39.246094 46.128906 39.210938 46.984375 39.164062 C 48.796875 39.0625 50.609375 38.90625 52.402344 38.660156 C 53.300781 38.535156 54.191406 38.386719 55.074219 38.203125 C 55.953125 38.015625 56.824219 37.796875 57.667969 37.515625 C 58.085938 37.375 58.5 37.222656 58.898438 37.050781 C 59.097656 36.960938 59.296875 36.871094 59.484375 36.773438 C 59.675781 36.675781 59.859375 36.570312 60.035156 36.460938 C 60.214844 36.351562 60.382812 36.234375 60.535156 36.109375 C 60.691406 35.984375 60.832031 35.855469 60.953125 35.71875 C 61.070312 35.578125 61.167969 35.4375 61.234375 35.296875 C 61.300781 35.15625 61.335938 35.015625 61.34375 34.875 C 61.347656 34.734375 61.320312 34.589844 61.261719 34.441406 C 61.203125 34.289062 61.113281 34.140625 61 33.992188 C 60.886719 33.84375 60.75 33.703125 60.597656 33.566406 C 60.449219 33.429688 60.285156 33.300781 60.109375 33.179688 C 59.9375 33.058594 59.753906 32.941406 59.566406 32.832031 C 59.378906 32.722656 59.183594 32.617188 58.988281 32.519531 C 58.738281 32.390625 58.257812 32.183594 57.921875 32.042969 C 57.855469 32.015625 57.816406 31.949219 57.820312 31.878906 C 57.832031 31.777344 57.925781 31.710938 58.023438 31.734375 C 59.183594 32.003906 60.890625 32.6875 61.636719 33.296875 C 61.714844 33.355469 61.835938 33.457031 61.957031 33.570312 C 62.292969 33.878906 62.515625 34.292969 62.574219 34.746094 C 62.582031 34.789062 62.585938 34.835938 62.585938 34.875 " fill-opacity="1" fill-rule="nonzero"/></g><g clip-path="url(#7438679754)"><path fill="#FF4A17" d="M 45.90625 40.347656 L 38.863281 37.175781 L 39.519531 39.292969 C 38.4375 39.265625 37.140625 39.21875 36.078125 39.160156 C 34.265625 39.054688 32.453125 38.898438 30.660156 38.648438 C 29.765625 38.523438 28.875 38.371094 27.992188 38.1875 C 27.113281 38 26.242188 37.78125 25.402344 37.5 C 24.980469 37.359375 24.570312 37.207031 24.171875 37.035156 C 23.972656 36.945312 23.777344 36.855469 23.585938 36.757812 C 23.394531 36.660156 23.210938 36.554688 23.035156 36.445312 C 22.859375 36.335938 22.691406 36.21875 22.539062 36.097656 C 22.386719 35.972656 22.242188 35.839844 22.125 35.707031 C 22.007812 35.570312 21.910156 35.429688 21.847656 35.289062 C 21.78125 35.148438 21.746094 35.011719 21.738281 34.875 C 21.738281 34.734375 21.761719 34.59375 21.816406 34.445312 C 21.875 34.300781 21.964844 34.148438 22.074219 34.003906 C 22.191406 33.855469 22.324219 33.714844 22.476562 33.578125 C 22.625 33.445312 22.789062 33.316406 22.960938 33.195312 C 23.136719 33.074219 23.316406 32.957031 23.503906 32.847656 C 23.691406 32.738281 23.886719 32.632812 24.082031 32.535156 C 24.265625 32.441406 24.566406 32.304688 24.773438 32.214844 C 24.789062 32.203125 24.808594 32.195312 24.824219 32.183594 C 24.9375 32.132812 25.050781 32.085938 25.152344 32.042969 C 25.21875 32.015625 25.257812 31.949219 25.25 31.878906 C 25.242188 31.792969 25.167969 31.730469 25.085938 31.730469 C 25.074219 31.730469 25.0625 31.730469 25.046875 31.734375 C 24.96875 31.753906 24.882812 31.773438 24.796875 31.796875 C 23.65625 32.101562 22.128906 32.730469 21.433594 33.296875 C 21.359375 33.355469 21.234375 33.457031 21.117188 33.570312 C 20.78125 33.878906 20.554688 34.292969 20.496094 34.746094 C 20.492188 34.789062 20.488281 34.835938 20.488281 34.875 C 20.480469 35.191406 20.550781 35.503906 20.664062 35.785156 C 20.777344 36.0625 20.929688 36.3125 21.101562 36.527344 C 21.273438 36.746094 21.460938 36.9375 21.65625 37.113281 C 21.851562 37.289062 22.054688 37.445312 22.261719 37.589844 C 23.089844 38.171875 23.96875 38.589844 24.855469 38.957031 C 25.746094 39.324219 26.648438 39.625 27.5625 39.890625 C 28.472656 40.15625 29.394531 40.386719 30.316406 40.585938 C 30.863281 40.703125 31.398438 40.8125 31.921875 40.910156 C 34.035156 41.277344 36.226562 41.503906 38.359375 41.617188 C 38.75 41.640625 39.136719 41.65625 39.519531 41.671875 L 38.910156 43.984375 L 45.90625 40.347656 " fill-opacity="1" fill-rule="nonzero"/></g><g clip-path="url(#12bf309041)"><path fill="#FF4A17" d="M 58.40625 21.332031 C 57.769531 21.332031 57.253906 21.839844 57.253906 22.46875 C 57.253906 23.097656 57.769531 23.609375 58.40625 23.609375 C 59.042969 23.609375 59.558594 23.097656 59.558594 22.46875 C 59.558594 21.839844 59.042969 21.332031 58.40625 21.332031 Z M 58.40625 24.367188 C 57.347656 24.367188 56.484375 23.515625 56.484375 22.46875 C 56.484375 21.421875 57.347656 20.570312 58.40625 20.570312 C 59.464844 20.570312 60.328125 21.421875 60.328125 22.46875 C 60.328125 23.515625 59.464844 24.367188 58.40625 24.367188 " fill-opacity="1" fill-rule="nonzero"/></g></svg>