<svg xmlns="http://www.w3.org/2000/svg" xmlns:xlink="http://www.w3.org/1999/xlink" width="216" zoomAndPan="magnify" viewBox="0 0 162 161.999997" height="216" preserveAspectRatio="xMidYMid meet" version="1.0"><defs><clipPath id="0fcb6e2e53"><path d="M 96 63 L 116 63 L 116 141.824219 L 96 141.824219 Z M 96 63 " clip-rule="nonzero"/></clipPath><clipPath id="f8c2d08a02"><path d="M 133 100 L 138 100 L 138 141.824219 L 133 141.824219 Z M 133 100 " clip-rule="nonzero"/></clipPath><clipPath id="0c9e6ac7ad"><path d="M 113 75 L 147.773438 75 L 147.773438 101 L 113 101 Z M 113 75 " clip-rule="nonzero"/></clipPath><clipPath id="308b4fc7e0"><path d="M 13.523438 19.574219 L 138 19.574219 L 138 115 L 13.523438 115 Z M 13.523438 19.574219 " clip-rule="nonzero"/></clipPath></defs><g clip-path="url(#0fcb6e2e53)"><path fill="#FF4A17" d="M 110.4375 141.730469 L 108.058594 103.773438 C 102.914062 99.59375 99.496094 93.515625 98.617188 86.925781 L 96.53125 71.234375 C 96.488281 70.9375 96.46875 70.625 96.46875 70.316406 C 96.46875 66.503906 99.570312 63.402344 103.382812 63.402344 C 106.484375 63.402344 109.222656 65.503906 110.039062 68.515625 L 115.382812 87.871094 L 110.941406 89.101562 L 105.59375 69.734375 C 105.320312 68.714844 104.410156 68.011719 103.382812 68.011719 C 102.109375 68.011719 101.078125 69.042969 101.078125 70.316406 C 101.078125 70.421875 101.085938 70.519531 101.097656 70.621094 L 103.183594 86.316406 C 103.949219 92.042969 107.039062 97.300781 111.667969 100.742188 L 112.523438 101.382812 L 115.039062 141.445312 L 110.441406 141.730469 Z M 110.4375 141.730469 " fill-opacity="1" fill-rule="nonzero"/></g><path fill="#FF4A17" d="M 137.9375 91.566406 L 133.332031 91.566406 L 133.332031 73.628906 C 133.332031 70.289062 132.585938 66.921875 131.175781 63.890625 L 126.261719 53.335938 C 125.867188 52.425781 125.035156 51.875 124.113281 51.875 L 103.378906 51.875 C 102.105469 51.875 101.074219 52.910156 101.074219 54.183594 C 101.074219 55.453125 102.105469 56.488281 103.378906 56.488281 L 107.984375 56.488281 L 107.984375 61.097656 L 103.378906 61.097656 C 99.566406 61.097656 96.464844 57.996094 96.464844 54.183594 C 96.464844 50.367188 99.566406 47.265625 103.378906 47.265625 L 124.113281 47.265625 C 126.882812 47.265625 129.371094 48.910156 130.464844 51.453125 L 135.351562 61.949219 C 137.042969 65.582031 137.9375 69.621094 137.9375 73.628906 Z M 137.9375 91.566406 " fill-opacity="1" fill-rule="nonzero"/><g clip-path="url(#f8c2d08a02)"><path fill="#FF4A17" d="M 133.332031 100.285156 L 137.9375 100.285156 L 137.9375 141.785156 L 133.332031 141.785156 Z M 133.332031 100.285156 " fill-opacity="1" fill-rule="nonzero"/></g><path fill="#FF4A17" d="M 125.082031 70.714844 L 121.515625 62.238281 C 121.28125 61.695312 120.492188 61.097656 119.507812 61.097656 L 107.984375 61.097656 C 106.714844 61.097656 105.679688 62.128906 105.679688 63.402344 C 105.679688 63.859375 105.757812 64.113281 106.007812 64.488281 L 102.164062 67.039062 C 101.417969 65.910156 101.074219 64.757812 101.074219 63.402344 C 101.074219 59.589844 104.171875 56.484375 107.984375 56.484375 L 119.507812 56.484375 C 122.230469 56.484375 124.742188 58.074219 125.757812 60.4375 L 129.328125 68.929688 L 125.082031 70.71875 Z M 125.082031 70.714844 " fill-opacity="1" fill-rule="nonzero"/><path fill="#FF4A17" d="M 123.914062 79.539062 L 110.050781 79.539062 L 110.050781 74.929688 L 116.921875 74.929688 L 114.949219 70.316406 L 107.351562 70.316406 L 107.351562 65.707031 L 117.988281 65.707031 Z M 123.914062 79.539062 " fill-opacity="1" fill-rule="nonzero"/><g clip-path="url(#0c9e6ac7ad)"><path fill="#FF4A17" d="M 113.730469 79.132812 L 116.363281 75.34375 L 147.769531 97.210938 L 145.136719 101 Z M 113.730469 79.132812 " fill-opacity="1" fill-rule="nonzero"/></g><path fill="#FF4A17" d="M 88.84375 61.804688 L 91.476562 58.015625 L 101.5625 65.035156 L 98.929688 68.824219 Z M 88.84375 61.804688 " fill-opacity="1" fill-rule="nonzero"/><path fill="#FF4A17" d="M 15.832031 97.980469 L 107.632812 97.980469 L 107.632812 102.589844 L 15.832031 102.589844 Z M 15.832031 97.980469 " fill-opacity="1" fill-rule="nonzero"/><path fill="#FF4A17" d="M 60.863281 124.957031 L 65.21875 111.125 L 69.617188 112.511719 L 65.257812 126.34375 Z M 60.863281 124.957031 " fill-opacity="1" fill-rule="nonzero"/><g clip-path="url(#308b4fc7e0)"><path fill="#FF4A17" d="M 75.734375 114.117188 L 27.675781 114.117188 C 19.742188 114.117188 13.527344 108.042969 13.527344 100.285156 L 13.527344 33.429688 C 13.527344 25.804688 19.730469 19.597656 27.351562 19.597656 L 124.117188 19.597656 C 131.738281 19.597656 137.9375 25.804688 137.9375 33.429688 L 137.9375 47.261719 L 133.332031 47.261719 L 133.332031 33.429688 C 133.332031 28.347656 129.199219 24.210938 124.117188 24.210938 L 27.351562 24.210938 C 22.269531 24.210938 18.136719 28.347656 18.136719 33.429688 L 18.136719 100.285156 C 18.136719 105.457031 22.324219 109.507812 27.675781 109.507812 L 75.734375 109.507812 Z M 75.734375 114.117188 " fill-opacity="1" fill-rule="nonzero"/></g><path fill="#FF4A17" d="M 96.46875 137.171875 L 54.996094 137.171875 C 52.457031 137.171875 50.390625 135.105469 50.390625 132.5625 L 50.390625 127.953125 C 50.390625 125.410156 52.457031 123.34375 54.996094 123.34375 L 73.429688 123.34375 L 73.429688 127.953125 L 54.996094 127.953125 L 54.996094 132.5625 L 96.46875 132.5625 L 96.46875 127.953125 L 86.722656 127.953125 L 80.832031 109.511719 L 103.378906 109.511719 L 103.378906 114.121094 L 87.144531 114.121094 L 90.085938 123.34375 L 96.46875 123.34375 C 99.007812 123.34375 101.074219 125.410156 101.074219 127.953125 L 101.074219 132.5625 C 101.074219 135.105469 99.007812 137.171875 96.46875 137.171875 Z M 96.46875 137.171875 " fill-opacity="1" fill-rule="nonzero"/><path fill="#FF4A17" d="M 25.046875 31.125 L 38.871094 31.125 L 38.871094 35.738281 L 25.046875 35.738281 Z M 25.046875 31.125 " fill-opacity="1" fill-rule="nonzero"/><path fill="#FF4A17" d="M 25.046875 40.347656 L 38.871094 40.347656 L 38.871094 44.957031 L 25.046875 44.957031 Z M 25.046875 40.347656 " fill-opacity="1" fill-rule="nonzero"/><path fill="#FF4A17" d="M 25.046875 49.570312 L 38.871094 49.570312 L 38.871094 54.179688 L 25.046875 54.179688 Z M 25.046875 49.570312 " fill-opacity="1" fill-rule="nonzero"/><path fill="#FF4A17" d="M 73.429688 74.929688 C 68.347656 74.929688 64.214844 70.792969 64.214844 65.707031 C 64.214844 60.621094 68.347656 56.484375 73.429688 56.484375 C 78.511719 56.484375 82.644531 60.621094 82.644531 65.707031 C 82.644531 70.792969 78.511719 74.929688 73.429688 74.929688 Z M 73.429688 61.097656 C 70.890625 61.097656 68.824219 63.164062 68.824219 65.707031 C 68.824219 68.25 70.890625 70.316406 73.429688 70.316406 C 75.96875 70.316406 78.039062 68.25 78.039062 65.707031 C 78.039062 63.164062 75.96875 61.097656 73.429688 61.097656 Z M 73.429688 61.097656 " fill-opacity="1" fill-rule="nonzero"/><path fill="#FF4A17" d="M 38.871094 86.457031 L 34.261719 86.457031 C 34.261719 67.386719 45.113281 51.875 58.453125 51.875 C 63.773438 51.875 67.785156 53.703125 71.875 57.996094 L 68.539062 61.179688 C 65.363281 57.84375 62.441406 56.484375 58.453125 56.484375 C 47.65625 56.484375 38.871094 69.929688 38.871094 86.457031 Z M 38.871094 86.457031 " fill-opacity="1" fill-rule="nonzero"/></svg>