<svg xmlns="http://www.w3.org/2000/svg" xmlns:xlink="http://www.w3.org/1999/xlink" width="216" zoomAndPan="magnify" viewBox="0 0 162 161.999997" height="216" preserveAspectRatio="xMidYMid meet" version="1.0"><defs><clipPath id="0f3e01e062"><path d="M 113 68 L 142.429688 68 L 142.429688 95 L 113 95 Z M 113 68 " clip-rule="nonzero"/></clipPath><clipPath id="825c4388ec"><path d="M 18.679688 64 L 44 64 L 44 95 L 18.679688 95 Z M 18.679688 64 " clip-rule="nonzero"/></clipPath><clipPath id="098bfb324e"><path d="M 32 18.808594 L 138 18.808594 L 138 142.558594 L 32 142.558594 Z M 32 18.808594 " clip-rule="nonzero"/></clipPath></defs><g clip-path="url(#0f3e01e062)"><path fill="#FF4A17" d="M 140.867188 90.390625 L 136.914062 90.390625 L 136.914062 84.027344 C 136.914062 82.996094 136.078125 82.160156 135.046875 82.160156 L 129.886719 82.160156 L 129.886719 69.976562 C 129.886719 68.945312 129.050781 68.109375 128.019531 68.109375 L 119.589844 68.109375 C 118.558594 68.109375 117.71875 68.945312 117.71875 69.976562 L 117.71875 82.160156 L 115.171875 82.160156 C 114.140625 82.160156 113.304688 82.996094 113.304688 84.027344 C 113.304688 85.0625 114.140625 85.898438 115.171875 85.898438 L 119.589844 85.898438 C 120.621094 85.898438 121.457031 85.0625 121.457031 84.027344 L 121.457031 71.847656 L 126.152344 71.847656 L 126.152344 84.027344 C 126.152344 85.0625 126.988281 85.898438 128.019531 85.898438 L 133.175781 85.898438 L 133.175781 92.257812 C 133.175781 93.292969 134.011719 94.128906 135.046875 94.128906 L 140.867188 94.128906 C 141.898438 94.128906 142.734375 93.292969 142.734375 92.257812 C 142.734375 91.226562 141.898438 90.390625 140.867188 90.390625 Z M 140.867188 90.390625 " fill-opacity="1" fill-rule="nonzero"/></g><g clip-path="url(#825c4388ec)"><path fill="#FF4A17" d="M 35.21875 84.027344 C 35.21875 85.0625 36.054688 85.898438 37.085938 85.898438 L 41.703125 85.898438 C 42.734375 85.898438 43.570312 85.0625 43.570312 84.027344 C 43.570312 82.996094 42.734375 82.160156 41.703125 82.160156 L 38.953125 82.160156 L 38.953125 74.191406 C 38.953125 73.160156 38.117188 72.324219 37.085938 72.324219 L 30.722656 72.324219 L 30.722656 65.960938 C 30.722656 64.929688 29.886719 64.09375 28.855469 64.09375 L 23.636719 64.09375 C 22.605469 64.09375 21.765625 64.929688 21.765625 65.960938 L 21.765625 90.390625 L 20.625 90.390625 C 19.59375 90.390625 18.757812 91.226562 18.757812 92.257812 C 18.757812 93.292969 19.59375 94.128906 20.625 94.128906 L 23.636719 94.128906 C 24.667969 94.128906 25.503906 93.292969 25.503906 92.257812 L 25.503906 67.832031 L 26.988281 67.832031 L 26.988281 74.191406 C 26.988281 75.226562 27.824219 76.0625 28.855469 76.0625 L 35.21875 76.0625 Z M 35.21875 84.027344 " fill-opacity="1" fill-rule="nonzero"/></g><g clip-path="url(#098bfb324e)"><path fill="#FF4A17" d="M 135.515625 138.917969 L 122.871094 138.917969 L 122.871094 115.429688 C 122.871094 114.515625 122.210938 113.734375 121.308594 113.585938 L 111.246094 111.910156 L 111.246094 46.121094 C 111.246094 46.121094 111.246094 46.117188 111.246094 46.117188 L 111.246094 38.367188 C 111.246094 37.703125 110.890625 37.085938 110.316406 36.753906 L 79.933594 19.054688 C 79.929688 19.054688 79.929688 19.050781 79.925781 19.050781 C 79.921875 19.050781 79.921875 19.046875 79.917969 19.046875 C 79.910156 19.042969 79.902344 19.039062 79.894531 19.035156 C 79.835938 19.003906 79.777344 18.972656 79.71875 18.949219 C 79.699219 18.941406 79.683594 18.933594 79.664062 18.925781 C 79.605469 18.90625 79.546875 18.886719 79.492188 18.871094 C 79.476562 18.867188 79.460938 18.863281 79.449219 18.859375 C 79.300781 18.820312 79.152344 18.800781 79 18.800781 C 78.984375 18.800781 78.96875 18.800781 78.949219 18.804688 C 78.890625 18.804688 78.832031 18.808594 78.773438 18.816406 C 78.753906 18.816406 78.738281 18.820312 78.722656 18.820312 C 78.648438 18.832031 78.578125 18.847656 78.507812 18.867188 C 78.496094 18.867188 78.484375 18.875 78.472656 18.875 C 78.414062 18.894531 78.355469 18.914062 78.296875 18.9375 C 78.277344 18.945312 78.257812 18.953125 78.238281 18.960938 C 78.179688 18.988281 78.121094 19.015625 78.066406 19.050781 C 78.058594 19.054688 78.050781 19.054688 78.042969 19.058594 L 78.027344 19.070312 C 78.023438 19.070312 78.019531 19.074219 78.019531 19.074219 L 46.886719 37.425781 C 46.316406 37.761719 45.964844 38.375 45.964844 39.035156 L 45.964844 138.917969 L 33.875 138.917969 C 32.839844 138.917969 32.003906 139.753906 32.003906 140.785156 C 32.003906 141.816406 32.839844 142.652344 33.875 142.652344 L 52.316406 142.652344 C 53.351562 142.652344 54.1875 141.816406 54.1875 140.785156 C 54.1875 139.753906 53.351562 138.917969 52.316406 138.917969 L 49.703125 138.917969 L 49.703125 111.765625 L 77.125 108.511719 L 77.125 138.917969 L 58.777344 138.917969 C 57.746094 138.917969 56.910156 139.753906 56.910156 140.785156 C 56.910156 141.816406 57.746094 142.652344 58.777344 142.652344 L 135.515625 142.652344 C 136.546875 142.652344 137.382812 141.816406 137.382812 140.785156 C 137.382812 139.753906 136.546875 138.917969 135.515625 138.917969 Z M 77.125 23.941406 L 77.125 28.058594 L 49.703125 43.667969 L 49.703125 40.105469 Z M 49.703125 108.003906 L 49.703125 47.96875 L 77.125 32.359375 L 77.125 104.75 Z M 80.863281 23.921875 L 107.507812 39.441406 L 107.507812 42.890625 L 85.441406 30.460938 C 84.539062 29.953125 83.402344 30.273438 82.894531 31.171875 C 82.386719 32.070312 82.707031 33.210938 83.605469 33.714844 L 107.507812 47.179688 L 107.507812 107.980469 L 86.519531 105.257812 C 85.496094 105.125 84.558594 105.847656 84.425781 106.871094 C 84.296875 107.894531 85.015625 108.832031 86.039062 108.964844 L 107.507812 111.75 L 107.507812 113.492188 C 107.507812 114.40625 108.167969 115.1875 109.070312 115.335938 L 119.132812 117.011719 L 119.132812 138.917969 L 108.527344 138.917969 L 108.527344 131.410156 C 108.527344 130.378906 107.691406 129.542969 106.65625 129.542969 L 94.914062 129.542969 C 93.882812 129.542969 93.046875 130.378906 93.046875 131.410156 L 93.046875 138.917969 L 80.863281 138.917969 Z M 96.78125 138.917969 L 96.78125 133.277344 L 104.789062 133.277344 L 104.789062 138.917969 Z M 96.78125 138.917969 " fill-opacity="1" fill-rule="nonzero"/></g></svg>