
<svg xmlns="http://www.w3.org/2000/svg" xmlns:xlink="http://www.w3.org/1999/xlink" width="216"
                zoomAndPan="magnify" viewBox="0 0 162 161.999997" height="216" preserveAspectRatio="xMidYMid meet"
                version="1.0">
                <defs>
                  <clipPath id="5c1965629c">
                    <path d="M 56 109 L 104 109 L 104 155.742188 L 56 155.742188 Z M 56 109 " clip-rule="nonzero" />
                  </clipPath>
                  <clipPath id="5680953f92">
                    <path d="M 71 5.742188 L 89 5.742188 L 89 23 L 71 23 Z M 71 5.742188 " clip-rule="nonzero" />
                  </clipPath>
                </defs>
                <path fill="#FF4A17"
                  d="M 80.296875 86.589844 C 80.25 86.589844 80.207031 86.589844 80.167969 86.585938 C 79.777344 86.613281 79.382812 86.523438 79.035156 86.3125 L 34.683594 59.703125 C 34.09375 59.351562 33.738281 58.710938 33.738281 58.023438 C 33.738281 57.335938 34.101562 56.703125 34.691406 56.351562 L 79.171875 30.003906 C 79.785156 29.640625 80.542969 29.640625 81.15625 30 L 125.882812 56.351562 C 126.476562 56.699219 126.839844 57.332031 126.84375 58.023438 C 126.847656 58.714844 126.484375 59.351562 125.894531 59.703125 L 81.292969 86.3125 C 80.984375 86.5 80.640625 86.589844 80.296875 86.589844 Z M 39.484375 58.039062 L 80.167969 82.449219 L 121.074219 58.042969 L 80.167969 33.941406 Z M 39.484375 58.039062 "
                  fill-opacity="1" fill-rule="nonzero" />
                <path fill="#FF4A17"
                  d="M 99.824219 125.699219 C 99.589844 125.699219 99.355469 125.652344 99.132812 125.570312 C 98.648438 125.386719 98.253906 125.015625 98.042969 124.542969 C 94.921875 117.535156 87.957031 113.011719 80.296875 113.011719 C 72.699219 113.011719 65.753906 117.484375 62.609375 124.402344 C 62.167969 125.375 61.019531 125.808594 60.042969 125.375 L 34.890625 114.175781 C 34.1875 113.859375 33.734375 113.164062 33.734375 112.394531 L 33.734375 58.03125 C 33.734375 57.328125 34.113281 56.679688 34.71875 56.335938 C 35.328125 55.992188 36.082031 56 36.683594 56.359375 L 80.167969 82.449219 L 123.894531 56.359375 C 124.496094 56 125.246094 55.996094 125.855469 56.339844 C 126.460938 56.683594 126.839844 57.332031 126.839844 58.035156 L 126.839844 112.394531 C 126.839844 113.160156 126.394531 113.855469 125.699219 114.171875 L 100.625 125.527344 C 100.371094 125.640625 100.097656 125.699219 99.824219 125.699219 Z M 80.296875 109.113281 C 88.839844 109.113281 96.660156 113.800781 100.730469 121.199219 L 122.949219 111.132812 L 122.949219 61.464844 L 81.292969 86.316406 C 80.949219 86.523438 80.550781 86.613281 80.164062 86.585938 C 79.773438 86.613281 79.378906 86.523438 79.03125 86.3125 L 37.628906 61.472656 L 37.628906 111.132812 L 59.933594 121.0625 C 64.03125 113.746094 71.824219 109.113281 80.296875 109.113281 Z M 80.296875 109.113281 "
                  fill-opacity="1" fill-rule="nonzero" />
                <path fill="#FF4A17"
                  d="M 80.296875 113.011719 C 79.21875 113.011719 78.347656 112.140625 78.347656 111.0625 L 78.347656 84.640625 C 78.347656 83.566406 79.21875 82.695312 80.296875 82.695312 C 81.371094 82.695312 82.242188 83.566406 82.242188 84.640625 L 82.242188 111.0625 C 82.242188 112.140625 81.371094 113.011719 80.296875 113.011719 Z M 80.296875 113.011719 "
                  fill-opacity="1" fill-rule="nonzero" />
                <g clip-path="url(#5c1965629c)">
                  <path fill="#FF4A17"
                    d="M 80.296875 155.742188 C 67.441406 155.742188 56.980469 145.285156 56.980469 132.429688 C 56.980469 119.574219 67.441406 109.113281 80.296875 109.113281 C 93.152344 109.113281 103.609375 119.574219 103.609375 132.429688 C 103.609375 145.285156 93.152344 155.742188 80.296875 155.742188 Z M 80.296875 113.011719 C 69.585938 113.011719 60.878906 121.71875 60.878906 132.429688 C 60.878906 143.136719 69.585938 151.847656 80.296875 151.847656 C 91 151.847656 99.710938 143.136719 99.710938 132.429688 C 99.710938 121.71875 91 113.011719 80.296875 113.011719 Z M 80.296875 113.011719 "
                    fill-opacity="1" fill-rule="nonzero" />
                </g>
                <path fill="#FF4A17"
                  d="M 71.335938 134.375 C 71.078125 134.375 70.820312 134.363281 70.570312 134.332031 C 69.5 134.207031 68.734375 133.238281 68.859375 132.167969 C 68.984375 131.097656 69.957031 130.339844 71.023438 130.460938 C 71.125 130.472656 71.230469 130.476562 71.335938 130.476562 C 72.785156 130.476562 73.972656 129.296875 73.972656 127.84375 C 73.972656 126.390625 72.789062 125.210938 71.335938 125.210938 C 70.417969 125.210938 69.554688 125.703125 69.082031 126.484375 C 68.527344 127.410156 67.328125 127.707031 66.410156 127.152344 C 65.484375 126.597656 65.1875 125.398438 65.742188 124.480469 C 66.914062 122.527344 69.058594 121.316406 71.335938 121.316406 C 74.933594 121.316406 77.863281 124.246094 77.863281 127.84375 C 77.863281 131.445312 74.9375 134.375 71.335938 134.375 Z M 71.335938 134.375 "
                  fill-opacity="1" fill-rule="nonzero" />
                <path fill="#FF4A17"
                  d="M 71.335938 143.539062 C 69.058594 143.539062 66.914062 142.328125 65.742188 140.375 C 65.1875 139.453125 65.484375 138.257812 66.410156 137.703125 C 67.332031 137.148438 68.527344 137.449219 69.082031 138.371094 C 69.554688 139.160156 70.417969 139.644531 71.335938 139.644531 C 72.785156 139.644531 73.972656 138.464844 73.972656 137.011719 C 73.972656 135.558594 72.789062 134.375 71.335938 134.375 C 71.230469 134.375 71.128906 134.382812 71.027344 134.394531 C 69.964844 134.523438 68.988281 133.761719 68.863281 132.691406 C 68.734375 131.625 69.5 130.652344 70.566406 130.527344 C 70.820312 130.496094 71.078125 130.480469 71.335938 130.480469 C 74.933594 130.480469 77.863281 133.410156 77.863281 137.007812 C 77.863281 140.605469 74.9375 143.539062 71.335938 143.539062 Z M 71.335938 143.539062 "
                  fill-opacity="1" fill-rule="nonzero" />
                <path fill="#FF4A17"
                  d="M 84.015625 143.539062 L 82.753906 143.539062 C 81.679688 143.539062 80.804688 142.667969 80.804688 141.589844 L 80.804688 123.265625 C 80.804688 122.191406 81.679688 121.316406 82.753906 121.316406 L 84.015625 121.316406 C 90.140625 121.316406 95.125 126.304688 95.125 132.429688 C 95.125 138.554688 90.144531 143.539062 84.015625 143.539062 Z M 84.707031 125.25 L 84.707031 139.613281 C 88.363281 139.265625 91.234375 136.175781 91.234375 132.433594 C 91.230469 128.683594 88.363281 125.597656 84.707031 125.25 Z M 84.707031 125.25 "
                  fill-opacity="1" fill-rule="nonzero" />
                <path fill="#FF4A17"
                  d="M 80.164062 33.628906 C 79.089844 33.628906 78.214844 32.753906 78.214844 31.679688 L 78.214844 20.742188 C 78.214844 19.667969 79.089844 18.792969 80.164062 18.792969 C 81.238281 18.792969 82.113281 19.667969 82.113281 20.742188 L 82.113281 31.679688 C 82.113281 32.757812 81.242188 33.628906 80.164062 33.628906 Z M 80.164062 33.628906 "
                  fill-opacity="1" fill-rule="nonzero" />
                <g clip-path="url(#5680953f92)">
                  <path fill="#FF4A17"
                    d="M 80.164062 22.691406 C 75.488281 22.691406 71.683594 18.886719 71.683594 14.210938 C 71.683594 9.535156 75.484375 5.730469 80.164062 5.730469 C 84.835938 5.730469 88.640625 9.535156 88.640625 14.210938 C 88.640625 18.886719 84.835938 22.691406 80.164062 22.691406 Z M 80.164062 9.632812 C 77.636719 9.632812 75.582031 11.6875 75.582031 14.214844 C 75.582031 16.742188 77.636719 18.796875 80.164062 18.796875 C 82.691406 18.796875 84.746094 16.742188 84.746094 14.214844 C 84.746094 11.6875 82.691406 9.632812 80.164062 9.632812 Z M 80.164062 9.632812 "
                    fill-opacity="1" fill-rule="nonzero" />
                </g>
                <path fill="#FF4A17"
                  d="M 134.367188 119.808594 C 134.035156 119.808594 133.699219 119.726562 133.394531 119.550781 L 123.921875 114.082031 C 122.992188 113.542969 122.671875 112.351562 123.207031 111.417969 C 123.746094 110.488281 124.9375 110.167969 125.871094 110.703125 L 135.34375 116.171875 C 136.273438 116.710938 136.59375 117.902344 136.058594 118.835938 C 135.695312 119.460938 135.039062 119.808594 134.367188 119.808594 Z M 134.367188 119.808594 "
                  fill-opacity="1" fill-rule="nonzero" />
                <path fill="#FF4A17"
                  d="M 140.007812 129.609375 C 138.539062 129.609375 137.089844 129.222656 135.785156 128.46875 C 133.820312 127.335938 132.417969 125.507812 131.832031 123.320312 C 131.25 121.132812 131.550781 118.847656 132.679688 116.886719 C 133.8125 114.925781 135.636719 113.523438 137.828125 112.9375 C 140.011719 112.351562 142.296875 112.652344 144.257812 113.78125 C 148.308594 116.121094 149.703125 121.316406 147.359375 125.363281 C 146.226562 127.324219 144.402344 128.726562 142.214844 129.3125 C 141.484375 129.511719 140.746094 129.609375 140.007812 129.609375 Z M 140.03125 116.546875 C 139.632812 116.546875 139.234375 116.597656 138.835938 116.703125 C 137.65625 117.023438 136.667969 117.78125 136.058594 118.839844 C 135.445312 119.898438 135.28125 121.132812 135.601562 122.316406 C 135.917969 123.5 136.675781 124.488281 137.734375 125.097656 C 138.792969 125.710938 140.027344 125.875 141.210938 125.554688 C 142.394531 125.238281 143.382812 124.480469 143.996094 123.421875 C 144.609375 122.363281 144.769531 121.128906 144.453125 119.945312 C 144.132812 118.761719 143.375 117.773438 142.316406 117.160156 C 141.609375 116.753906 140.824219 116.546875 140.03125 116.546875 Z M 140.03125 116.546875 "
                  fill-opacity="1" fill-rule="nonzero" />
                <path fill="#FF4A17"
                  d="M 26.210938 119.808594 C 25.539062 119.808594 24.882812 119.460938 24.523438 118.835938 C 23.984375 117.90625 24.304688 116.710938 25.238281 116.171875 L 34.710938 110.703125 C 35.640625 110.167969 36.835938 110.484375 37.371094 111.417969 C 37.910156 112.347656 37.59375 113.542969 36.660156 114.082031 L 27.183594 119.550781 C 26.878906 119.726562 26.542969 119.808594 26.210938 119.808594 Z M 26.210938 119.808594 "
                  fill-opacity="1" fill-rule="nonzero" />
                <path fill="#FF4A17"
                  d="M 20.570312 129.609375 C 19.832031 129.609375 19.089844 129.507812 18.359375 129.3125 C 16.171875 128.726562 14.347656 127.324219 13.214844 125.363281 C 12.082031 123.402344 11.777344 121.117188 12.367188 118.929688 C 12.953125 116.742188 14.355469 114.914062 16.316406 113.78125 C 20.367188 111.445312 25.5625 112.839844 27.898438 116.882812 C 29.03125 118.847656 29.332031 121.128906 28.746094 123.316406 C 28.160156 125.503906 26.753906 127.332031 24.792969 128.464844 C 23.488281 129.222656 22.039062 129.609375 20.570312 129.609375 Z M 20.546875 116.546875 C 19.769531 116.546875 18.984375 116.742188 18.261719 117.15625 C 17.203125 117.769531 16.445312 118.757812 16.128906 119.941406 C 15.8125 121.121094 15.972656 122.355469 16.585938 123.417969 C 17.199219 124.476562 18.183594 125.238281 19.367188 125.550781 C 20.550781 125.871094 21.785156 125.707031 22.847656 125.097656 C 23.90625 124.484375 24.664062 123.496094 24.980469 122.3125 C 25.292969 121.128906 25.136719 119.898438 24.523438 118.835938 C 23.675781 117.367188 22.132812 116.546875 20.546875 116.546875 Z M 20.546875 116.546875 "
                  fill-opacity="1" fill-rule="nonzero" />
              </svg>