<svg xmlns="http://www.w3.org/2000/svg" xmlns:xlink="http://www.w3.org/1999/xlink" width="216" zoomAndPan="magnify" viewBox="0 0 162 161.999997" height="216" preserveAspectRatio="xMidYMid meet" version="1.0"><defs><clipPath id="5d90937cee"><path d="M 78 137 L 83 137 L 83 141.296875 L 78 141.296875 Z M 78 137 " clip-rule="nonzero"/></clipPath><clipPath id="57360aac0f"><path d="M 78 20.546875 L 83 20.546875 L 83 25 L 78 25 Z M 78 20.546875 " clip-rule="nonzero"/></clipPath></defs><g clip-path="url(#5d90937cee)"><path fill="#FF4A17" d="M 78.421875 137.132812 L 82.570312 137.132812 L 82.570312 141.296875 L 78.421875 141.296875 Z M 78.421875 137.132812 " fill-opacity="1" fill-rule="nonzero"/></g><path fill="#FF4A17" d="M 140.738281 40.878906 C 137.832031 35.832031 131.714844 32.957031 123.046875 32.558594 C 115.085938 32.195312 105.167969 33.910156 94.371094 37.527344 L 95.683594 41.476562 C 116.363281 34.554688 132.636719 35.136719 137.140625 42.960938 C 140.246094 48.355469 137.546875 57.160156 129.730469 67.117188 C 128.625 68.527344 127.433594 69.941406 126.164062 71.351562 L 126.164062 60.101562 C 126.164062 59.761719 126.082031 59.414062 125.90625 59.097656 C 125.683594 58.695312 125.351562 58.394531 124.960938 58.210938 C 123.996094 57.75 81.386719 37.402344 81.386719 37.402344 C 80.824219 37.132812 80.167969 37.132812 79.601562 37.402344 L 36.15625 58.152344 C 36.039062 58.203125 35.917969 58.261719 35.796875 58.339844 C 35.171875 58.734375 34.828125 59.410156 34.828125 60.101562 L 34.828125 101.738281 C 34.828125 102.542969 35.289062 103.273438 36.011719 103.617188 L 55.398438 112.878906 C 53.007812 113.429688 50.675781 113.878906 48.414062 114.203125 C 35.910156 116.011719 26.957031 113.957031 23.851562 108.5625 C 21.164062 103.898438 22.78125 96.710938 28.402344 88.328125 L 24.957031 86.003906 C 18.3125 95.921875 16.683594 104.441406 20.253906 110.644531 C 23.421875 116.144531 30.335938 119.011719 40.101562 119.011719 C 42.851562 119.011719 45.824219 118.785156 49.007812 118.324219 C 52.910156 117.761719 57.011719 116.867188 61.242188 115.667969 L 79.605469 124.4375 C 79.886719 124.574219 80.191406 124.640625 80.496094 124.640625 C 80.800781 124.640625 81.105469 124.574219 81.386719 124.4375 L 124.980469 103.617188 C 125.703125 103.273438 126.164062 102.542969 126.164062 101.738281 L 126.164062 77.414062 C 128.683594 74.851562 130.972656 72.269531 132.992188 69.695312 C 142.042969 58.160156 144.792969 47.925781 140.738281 40.878906 Z M 78.421875 119.261719 L 67.085938 113.847656 C 70.804688 112.585938 74.597656 111.113281 78.421875 109.4375 Z M 78.421875 104.886719 C 72.699219 107.476562 67.042969 109.609375 61.605469 111.230469 L 38.980469 100.425781 L 38.980469 63.398438 C 47.648438 67.539062 72.679688 79.492188 78.421875 82.234375 Z M 80.496094 78.613281 L 41.730469 60.101562 L 80.496094 41.589844 L 119.261719 60.101562 Z M 122.011719 100.425781 L 82.570312 119.261719 L 82.570312 107.546875 C 86.722656 105.582031 90.890625 103.398438 95.027344 101.003906 C 105.21875 95.101562 114.429688 88.394531 122.011719 81.421875 Z M 122.011719 75.6875 C 114.191406 83.394531 104.191406 90.886719 92.949219 97.398438 C 89.5 99.394531 86.03125 101.242188 82.570312 102.933594 L 82.570312 82.234375 L 122.011719 63.398438 Z M 122.011719 75.6875 " fill-opacity="1" fill-rule="nonzero"/><path fill="#FF4A17" d="M 26.523438 78.839844 L 30.675781 78.839844 L 30.675781 83.003906 L 26.523438 83.003906 Z M 26.523438 78.839844 " fill-opacity="1" fill-rule="nonzero"/><path fill="#FF4A17" d="M 18.222656 78.839844 L 22.371094 78.839844 L 22.371094 83.003906 L 18.222656 83.003906 Z M 18.222656 78.839844 " fill-opacity="1" fill-rule="nonzero"/><path fill="#FF4A17" d="M 138.617188 78.839844 L 142.769531 78.839844 L 142.769531 83.003906 L 138.617188 83.003906 Z M 138.617188 78.839844 " fill-opacity="1" fill-rule="nonzero"/><path fill="#FF4A17" d="M 130.316406 78.839844 L 134.46875 78.839844 L 134.46875 83.003906 L 130.316406 83.003906 Z M 130.316406 78.839844 " fill-opacity="1" fill-rule="nonzero"/><path fill="#FF4A17" d="M 78.421875 128.804688 L 82.570312 128.804688 L 82.570312 132.96875 L 78.421875 132.96875 Z M 78.421875 128.804688 " fill-opacity="1" fill-rule="nonzero"/><g clip-path="url(#57360aac0f)"><path fill="#FF4A17" d="M 78.421875 20.546875 L 82.570312 20.546875 L 82.570312 24.707031 L 78.421875 24.707031 Z M 78.421875 20.546875 " fill-opacity="1" fill-rule="nonzero"/></g><path fill="#FF4A17" d="M 78.421875 28.871094 L 82.570312 28.871094 L 82.570312 33.035156 L 78.421875 33.035156 Z M 78.421875 28.871094 " fill-opacity="1" fill-rule="nonzero"/></svg>