<svg xmlns="http://www.w3.org/2000/svg" xmlns:xlink="http://www.w3.org/1999/xlink" width="216" zoomAndPan="magnify" viewBox="0 0 162 161.999997" height="216" preserveAspectRatio="xMidYMid meet" version="1.0"><defs><clipPath id="032f7b1384"><path d="M 17.492188 17.492188 L 144.242188 17.492188 L 144.242188 144.242188 L 17.492188 144.242188 Z M 17.492188 17.492188 " clip-rule="nonzero"/></clipPath></defs><g clip-path="url(#032f7b1384)"><path fill="#FF4A17" d="M 140.019531 112.554688 C 140.019531 113.71875 139.070312 114.667969 137.90625 114.667969 L 23.832031 114.667969 C 22.667969 114.667969 21.71875 113.71875 21.71875 112.554688 L 21.71875 106.21875 L 140.019531 106.21875 Z M 91.246094 140.019531 L 70.492188 140.019531 L 72.25 118.894531 L 89.488281 118.894531 Z M 21.71875 23.832031 C 21.71875 22.667969 22.667969 21.71875 23.832031 21.71875 L 137.90625 21.71875 C 139.070312 21.71875 140.019531 22.667969 140.019531 23.832031 L 140.019531 101.992188 L 21.71875 101.992188 Z M 137.90625 17.492188 L 23.832031 17.492188 C 20.335938 17.492188 17.492188 20.335938 17.492188 23.832031 L 17.492188 112.554688 C 17.492188 116.050781 20.335938 118.894531 23.832031 118.894531 L 68.007812 118.894531 L 66.25 140.019531 L 63.96875 140.019531 L 63.96875 144.242188 L 97.769531 144.242188 L 97.769531 140.019531 L 95.488281 140.019531 L 93.726562 118.894531 L 137.90625 118.894531 C 141.398438 118.894531 144.242188 116.050781 144.242188 112.554688 L 144.242188 23.832031 C 144.242188 20.335938 141.398438 17.492188 137.90625 17.492188 " fill-opacity="1" fill-rule="nonzero"/></g><path fill="#FF4A17" d="M 80.867188 127.34375 C 82.03125 127.34375 82.980469 128.292969 82.980469 129.457031 C 82.980469 130.621094 82.03125 131.570312 80.867188 131.570312 C 79.703125 131.570312 78.757812 130.621094 78.757812 129.457031 C 78.757812 128.292969 79.703125 127.34375 80.867188 127.34375 Z M 80.867188 135.792969 C 84.363281 135.792969 87.207031 132.949219 87.207031 129.457031 C 87.207031 125.960938 84.363281 123.117188 80.867188 123.117188 C 77.375 123.117188 74.53125 125.960938 74.53125 129.457031 C 74.53125 132.949219 77.375 135.792969 80.867188 135.792969 " fill-opacity="1" fill-rule="nonzero"/><path fill="#FF4A17" d="M 88.71875 45.421875 L 96.625 54.910156 L 81.492188 63.320312 L 73.53125 52.171875 Z M 97.769531 69.0625 L 82.980469 77.277344 L 82.980469 67.324219 L 97.769531 59.109375 Z M 69.84375 54.28125 L 74.644531 61.003906 L 66 57.160156 Z M 63.96875 60.882812 L 66.925781 62.195312 L 78.757812 67.453125 L 78.757812 77.617188 L 63.96875 71.046875 Z M 59.742188 72.417969 C 59.742188 73.253906 60.234375 74.011719 60.996094 74.347656 L 80.011719 82.796875 C 80.019531 82.800781 80.027344 82.804688 80.035156 82.808594 C 80.058594 82.816406 80.082031 82.824219 80.101562 82.835938 C 80.160156 82.855469 80.21875 82.878906 80.28125 82.894531 C 80.304688 82.902344 80.335938 82.910156 80.363281 82.917969 C 80.421875 82.929688 80.480469 82.945312 80.539062 82.953125 C 80.566406 82.957031 80.589844 82.960938 80.617188 82.964844 C 80.699219 82.976562 80.785156 82.980469 80.867188 82.980469 C 80.964844 82.980469 81.058594 82.972656 81.152344 82.960938 C 81.183594 82.957031 81.210938 82.949219 81.242188 82.945312 C 81.308594 82.929688 81.371094 82.921875 81.433594 82.902344 C 81.46875 82.890625 81.503906 82.878906 81.535156 82.867188 C 81.59375 82.847656 81.648438 82.832031 81.703125 82.804688 C 81.738281 82.789062 81.773438 82.773438 81.8125 82.753906 C 81.839844 82.742188 81.867188 82.730469 81.894531 82.714844 L 100.90625 72.152344 C 101.578125 71.78125 101.992188 71.074219 101.992188 70.304688 L 101.992188 55.519531 C 101.992188 55.507812 101.992188 55.496094 101.992188 55.488281 C 101.992188 55.421875 101.984375 55.355469 101.980469 55.292969 C 101.976562 55.273438 101.976562 55.25 101.972656 55.226562 C 101.960938 55.144531 101.941406 55.0625 101.921875 54.976562 C 101.917969 54.960938 101.910156 54.949219 101.910156 54.933594 C 101.890625 54.867188 101.867188 54.800781 101.84375 54.738281 C 101.832031 54.710938 101.820312 54.683594 101.804688 54.65625 L 101.734375 54.507812 C 101.714844 54.476562 101.699219 54.453125 101.683594 54.421875 C 101.65625 54.378906 101.625 54.335938 101.597656 54.289062 C 101.578125 54.265625 101.558594 54.234375 101.535156 54.210938 C 101.527344 54.195312 101.515625 54.179688 101.503906 54.167969 L 90.941406 41.492188 C 90.335938 40.765625 89.324219 40.527344 88.460938 40.914062 L 69.449219 49.363281 C 69.441406 49.367188 69.433594 49.371094 69.425781 49.375 C 69.382812 49.394531 69.339844 49.417969 69.292969 49.441406 C 69.273438 49.457031 69.25 49.464844 69.226562 49.476562 C 69.175781 49.507812 69.125 49.542969 69.074219 49.578125 C 69.066406 49.585938 69.050781 49.59375 69.042969 49.601562 L 69.039062 49.601562 L 60.589844 55.941406 C 60.574219 55.953125 60.558594 55.96875 60.542969 55.980469 C 60.507812 56.007812 60.46875 56.042969 60.433594 56.074219 C 60.402344 56.101562 60.371094 56.132812 60.34375 56.160156 C 60.308594 56.195312 60.277344 56.230469 60.246094 56.269531 C 60.21875 56.300781 60.191406 56.332031 60.167969 56.367188 C 60.140625 56.402344 60.113281 56.441406 60.085938 56.480469 C 60.066406 56.515625 60.042969 56.550781 60.019531 56.585938 C 59.996094 56.628906 59.976562 56.671875 59.957031 56.714844 C 59.9375 56.75 59.921875 56.789062 59.90625 56.824219 C 59.886719 56.871094 59.871094 56.914062 59.855469 56.960938 C 59.84375 57 59.828125 57.039062 59.820312 57.078125 C 59.808594 57.125 59.796875 57.171875 59.789062 57.21875 C 59.78125 57.257812 59.769531 57.300781 59.765625 57.339844 C 59.757812 57.390625 59.757812 57.4375 59.753906 57.484375 C 59.75 57.527344 59.746094 57.570312 59.742188 57.609375 L 59.742188 72.417969 " fill-opacity="1" fill-rule="nonzero"/><path fill="#FF4A17" d="M 53.992188 56.171875 C 55.070312 51.003906 57.621094 46.261719 61.449219 42.4375 C 72.15625 31.730469 89.578125 31.730469 100.289062 42.4375 L 103.277344 39.449219 C 90.917969 27.09375 70.816406 27.09375 58.460938 39.449219 C 53.605469 44.308594 50.523438 50.449219 49.53125 57.109375 L 48.5625 56.136719 L 45.574219 59.125 L 49.796875 63.351562 C 50.214844 63.761719 50.753906 63.96875 51.292969 63.96875 C 51.835938 63.96875 52.375 63.761719 52.789062 63.351562 L 57.011719 59.125 L 54.023438 56.136719 L 53.992188 56.171875 " fill-opacity="1" fill-rule="nonzero"/><path fill="#FF4A17" d="M 108.949219 60.359375 L 104.722656 64.585938 L 107.714844 67.574219 L 107.746094 67.542969 C 106.664062 72.707031 104.113281 77.449219 100.289062 81.273438 C 89.578125 91.984375 72.15625 91.984375 61.449219 81.273438 L 58.460938 84.261719 C 64.640625 90.441406 72.753906 93.527344 80.867188 93.527344 C 88.984375 93.527344 97.097656 90.441406 103.277344 84.261719 C 108.132812 79.402344 111.210938 73.261719 112.203125 66.605469 L 113.171875 67.574219 L 116.164062 64.585938 L 111.9375 60.359375 C 111.113281 59.539062 109.773438 59.539062 108.949219 60.359375 " fill-opacity="1" fill-rule="nonzero"/></svg>