<svg xmlns="http://www.w3.org/2000/svg" xmlns:xlink="http://www.w3.org/1999/xlink" width="216" zoomAndPan="magnify" viewBox="0 0 162 161.999997" height="216" preserveAspectRatio="xMidYMid meet" version="1.0"><defs><clipPath id="72ab94e422"><path d="M 43.714844 16 L 117.964844 16 L 117.964844 145.671875 L 43.714844 145.671875 Z M 43.714844 16 " clip-rule="nonzero"/></clipPath></defs><g clip-path="url(#72ab94e422)"><path fill="#FF4A17" d="M 114.054688 113.714844 L 114.054688 111.753906 L 47.65625 111.753906 L 47.65625 115.121094 L 114.054688 115.121094 Z M 114.054688 141.589844 L 114.054688 119.039062 L 107.53125 119.039062 L 107.53125 141.589844 Z M 101.757812 119.039062 L 59.949219 119.039062 L 76.078125 141.589844 L 85.628906 141.589844 Z M 54.175781 141.589844 L 54.175781 119.039062 L 47.65625 119.039062 L 47.65625 141.589844 Z M 51.515625 42.902344 L 110.191406 42.902344 L 80.855469 20.632812 Z M 74 107.835938 L 114.054688 107.835938 L 114.054688 46.820312 L 74 46.820312 Z M 59.058594 107.835938 L 70.074219 107.835938 L 70.074219 95.519531 L 59.058594 95.519531 Z M 70.074219 46.820312 L 59.058594 46.820312 L 59.058594 59.136719 L 70.074219 59.136719 Z M 59.058594 91.601562 L 70.074219 91.601562 L 70.074219 79.285156 L 59.058594 79.285156 Z M 70.074219 63.054688 L 59.058594 63.054688 L 59.058594 75.367188 L 70.074219 75.367188 Z M 47.65625 107.835938 L 55.132812 107.835938 L 55.132812 46.820312 L 47.65625 46.820312 Z M 117.980469 44.882812 L 117.980469 143.550781 C 117.980469 144.628906 117.101562 145.507812 116.015625 145.507812 L 105.570312 145.507812 C 104.488281 145.507812 103.605469 144.628906 103.605469 143.550781 L 103.605469 123.195312 L 88.234375 144.683594 C 87.867188 145.203125 87.273438 145.507812 86.640625 145.507812 L 75.070312 145.507812 C 74.433594 145.507812 73.839844 145.203125 73.46875 144.683594 L 58.101562 123.195312 L 58.101562 143.550781 C 58.101562 144.628906 57.222656 145.507812 56.136719 145.507812 L 45.691406 145.507812 C 44.605469 145.507812 43.726562 144.628906 43.726562 143.550781 L 43.726562 44.882812 C 43.726562 44.878906 43.726562 44.878906 43.726562 44.878906 L 43.726562 44.863281 C 43.726562 44.261719 44.003906 43.679688 44.5 43.300781 L 79.664062 16.613281 C 80.367188 16.078125 81.339844 16.078125 82.042969 16.613281 L 117.207031 43.300781 C 117.703125 43.679688 117.980469 44.261719 117.980469 44.859375 L 117.980469 44.878906 C 117.980469 44.878906 117.980469 44.878906 117.980469 44.882812 Z M 107.367188 51.925781 C 108.449219 51.925781 109.328125 52.804688 109.328125 53.886719 L 109.328125 88.429688 C 109.328125 89.511719 108.449219 90.386719 107.367188 90.386719 C 106.285156 90.386719 105.402344 89.511719 105.402344 88.429688 L 105.402344 53.886719 C 105.402344 52.804688 106.285156 51.925781 107.367188 51.925781 Z M 109.328125 97.679688 L 109.328125 100.371094 C 109.328125 101.453125 108.449219 102.332031 107.367188 102.332031 C 106.285156 102.332031 105.402344 101.453125 105.402344 100.371094 L 105.402344 97.679688 C 105.402344 96.601562 106.285156 95.722656 107.367188 95.722656 C 108.449219 95.722656 109.328125 96.601562 109.328125 97.679688 Z M 109.328125 97.679688 " fill-opacity="1" fill-rule="evenodd"/></g></svg>