<svg xmlns="http://www.w3.org/2000/svg" xmlns:xlink="http://www.w3.org/1999/xlink" width="216" zoomAndPan="magnify" viewBox="0 0 162 161.999997" height="216" preserveAspectRatio="xMidYMid meet" version="1.0"><defs><clipPath id="a56d69140f"><path d="M 15.1875 14.777344 L 146.4375 14.777344 L 146.4375 133 L 15.1875 133 Z M 15.1875 14.777344 " clip-rule="nonzero"/></clipPath><clipPath id="4483c654b2"><path d="M 33 129 L 57 129 L 57 146.777344 L 33 146.777344 Z M 33 129 " clip-rule="nonzero"/></clipPath><clipPath id="ca0c92f840"><path d="M 104 129 L 129 129 L 129 146.777344 L 104 146.777344 Z M 104 129 " clip-rule="nonzero"/></clipPath></defs><g clip-path="url(#a56d69140f)"><path fill="#FF4A17" d="M 137.53125 132.855469 L 24.171875 132.855469 C 19.222656 132.855469 15.195312 128.835938 15.195312 123.964844 L 15.195312 23.667969 C 15.195312 18.796875 19.222656 14.777344 24.171875 14.777344 L 137.53125 14.777344 C 142.484375 14.777344 146.429688 18.796875 146.429688 23.667969 L 146.429688 123.964844 C 146.429688 128.835938 142.484375 132.855469 137.53125 132.855469 Z M 24.171875 17.867188 C 20.921875 17.867188 18.292969 20.5 18.292969 23.667969 L 18.292969 123.964844 C 18.292969 127.132812 20.921875 129.761719 24.171875 129.761719 L 137.53125 129.761719 C 140.78125 129.761719 143.332031 127.132812 143.332031 123.964844 L 143.332031 23.667969 C 143.332031 20.5 140.78125 17.867188 137.53125 17.867188 Z M 24.171875 17.867188 " fill-opacity="1" fill-rule="evenodd"/></g><path fill="#FF4A17" d="M 134.28125 122.496094 L 27.421875 122.496094 C 26.570312 122.496094 25.875 121.796875 25.875 120.949219 L 25.875 26.605469 C 25.875 25.757812 26.570312 25.0625 27.421875 25.0625 L 134.28125 25.0625 C 135.132812 25.0625 135.828125 25.757812 135.828125 26.605469 L 135.828125 120.949219 C 135.828125 121.796875 135.132812 122.496094 134.28125 122.496094 Z M 28.96875 119.402344 L 132.734375 119.402344 L 132.734375 28.152344 L 28.96875 28.152344 Z M 28.96875 119.402344 " fill-opacity="1" fill-rule="evenodd"/><g clip-path="url(#4483c654b2)"><path fill="#FF4A17" d="M 48.316406 146.777344 L 41.738281 146.777344 C 37.019531 146.777344 33.226562 142.910156 33.226562 138.269531 L 33.226562 131.308594 C 33.226562 130.460938 33.921875 129.761719 34.773438 129.761719 C 35.625 129.761719 36.320312 130.460938 36.320312 131.308594 L 36.320312 138.269531 C 36.320312 141.207031 38.71875 143.683594 41.738281 143.683594 L 48.316406 143.683594 C 51.332031 143.683594 53.730469 141.207031 53.730469 138.269531 L 53.730469 131.308594 C 53.730469 130.460938 54.425781 129.761719 55.277344 129.761719 C 56.128906 129.761719 56.828125 130.460938 56.828125 131.308594 L 56.828125 138.269531 C 56.828125 142.910156 53.035156 146.777344 48.316406 146.777344 Z M 48.316406 146.777344 " fill-opacity="1" fill-rule="evenodd"/></g><g clip-path="url(#ca0c92f840)"><path fill="#FF4A17" d="M 119.964844 146.777344 L 113.390625 146.777344 C 108.667969 146.777344 104.878906 142.910156 104.878906 138.269531 L 104.878906 131.308594 C 104.878906 130.460938 105.574219 129.761719 106.425781 129.761719 C 107.277344 129.761719 107.972656 130.460938 107.972656 131.308594 L 107.972656 138.269531 C 107.972656 141.207031 110.371094 143.683594 113.390625 143.683594 L 119.964844 143.683594 C 122.90625 143.683594 125.382812 141.207031 125.382812 138.269531 L 125.382812 131.308594 C 125.382812 130.460938 126.078125 129.761719 126.929688 129.761719 C 127.78125 129.761719 128.476562 130.460938 128.476562 131.308594 L 128.476562 138.269531 C 128.476562 142.910156 124.609375 146.777344 119.964844 146.777344 Z M 119.964844 146.777344 " fill-opacity="1" fill-rule="evenodd"/></g><path fill="#FF4A17" d="M 80.8125 97.671875 C 80.582031 97.671875 80.273438 97.59375 80.039062 97.441406 L 60.773438 86.304688 C 60.230469 85.996094 60 85.53125 60 84.914062 L 60 62.640625 C 60 62.101562 60.230469 61.558594 60.773438 61.328125 L 80.039062 50.191406 C 80.582031 49.882812 81.121094 49.882812 81.585938 50.191406 L 100.929688 61.328125 C 101.394531 61.558594 101.703125 62.101562 101.703125 62.640625 L 101.703125 84.914062 C 101.703125 85.53125 101.394531 85.996094 100.929688 86.304688 L 81.585938 97.441406 C 81.355469 97.59375 81.121094 97.671875 80.8125 97.671875 Z M 63.09375 84.0625 L 80.8125 94.347656 L 98.609375 84.0625 L 98.609375 63.570312 L 80.8125 53.285156 L 63.09375 63.570312 Z M 63.09375 84.0625 " fill-opacity="1" fill-rule="evenodd"/><path fill="#FF4A17" d="M 80.8125 97.671875 C 79.960938 97.671875 79.265625 96.976562 79.265625 96.125 L 79.265625 74.707031 L 60.773438 64.035156 C 60 63.570312 59.765625 62.640625 60.152344 61.867188 C 60.617188 61.171875 61.546875 60.863281 62.320312 61.328125 L 81.585938 72.464844 C 82.128906 72.773438 82.359375 73.234375 82.359375 73.777344 L 82.359375 96.125 C 82.359375 96.976562 81.664062 97.671875 80.8125 97.671875 Z M 80.8125 97.671875 " fill-opacity="1" fill-rule="evenodd"/><path fill="#FF4A17" d="M 80.8125 75.324219 C 80.273438 75.324219 79.808594 75.09375 79.496094 74.550781 C 79.035156 73.855469 79.34375 72.925781 80.039062 72.464844 L 99.382812 61.328125 C 100.082031 60.863281 101.085938 61.171875 101.472656 61.867188 C 101.9375 62.640625 101.703125 63.570312 100.929688 64.035156 L 81.585938 75.167969 C 81.355469 75.246094 81.121094 75.324219 80.8125 75.324219 Z M 80.8125 75.324219 " fill-opacity="1" fill-rule="evenodd"/><path fill="#FF4A17" d="M 134.28125 57.539062 L 88.628906 57.539062 C 87.777344 57.539062 87.082031 56.84375 87.082031 55.992188 C 87.082031 55.140625 87.777344 54.445312 88.628906 54.445312 L 134.28125 54.445312 C 135.132812 54.445312 135.828125 55.140625 135.828125 55.992188 C 135.828125 56.84375 135.132812 57.539062 134.28125 57.539062 Z M 72.996094 57.539062 L 27.421875 57.539062 C 26.570312 57.539062 25.875 56.84375 25.875 55.992188 C 25.875 55.140625 26.570312 54.445312 27.421875 54.445312 L 73.074219 54.445312 C 73.925781 54.445312 74.621094 55.140625 74.621094 55.992188 C 74.621094 56.84375 73.925781 57.539062 72.996094 57.539062 Z M 72.996094 57.539062 " fill-opacity="1" fill-rule="evenodd"/><path fill="#FF4A17" d="M 134.28125 75.324219 L 100.15625 75.324219 C 99.304688 75.324219 98.609375 74.628906 98.609375 73.777344 C 98.609375 72.925781 99.304688 72.230469 100.15625 72.230469 L 134.28125 72.230469 C 135.132812 72.230469 135.828125 72.925781 135.828125 73.777344 C 135.828125 74.628906 135.132812 75.324219 134.28125 75.324219 Z M 61.546875 75.324219 L 27.421875 75.324219 C 26.570312 75.324219 25.875 74.628906 25.875 73.777344 C 25.875 72.925781 26.570312 72.230469 27.421875 72.230469 L 61.546875 72.230469 C 62.398438 72.230469 63.09375 72.925781 63.09375 73.777344 C 63.09375 74.628906 62.398438 75.324219 61.546875 75.324219 Z M 61.546875 75.324219 " fill-opacity="1" fill-rule="evenodd"/><path fill="#FF4A17" d="M 134.28125 93.109375 L 88.628906 93.109375 C 87.777344 93.109375 87.082031 92.414062 87.082031 91.5625 C 87.082031 90.710938 87.777344 90.015625 88.628906 90.015625 L 134.28125 90.015625 C 135.132812 90.015625 135.828125 90.710938 135.828125 91.5625 C 135.828125 92.414062 135.132812 93.109375 134.28125 93.109375 Z M 72.996094 93.109375 L 27.421875 93.109375 C 26.570312 93.109375 25.875 92.414062 25.875 91.5625 C 25.875 90.710938 26.570312 90.015625 27.421875 90.015625 L 73.074219 90.015625 C 73.925781 90.015625 74.621094 90.710938 74.621094 91.5625 C 74.621094 92.414062 73.925781 93.109375 72.996094 93.109375 Z M 72.996094 93.109375 " fill-opacity="1" fill-rule="evenodd"/></svg>